<?xml version="1.0" encoding="UTF-8" standalone="no"?>
<!-- Created with Inkscape (http://www.inkscape.org/) -->

<svg
   xmlns:osb="http://www.openswatchbook.org/uri/2009/osb"
   xmlns:dc="http://purl.org/dc/elements/1.1/"
   xmlns:cc="http://creativecommons.org/ns#"
   xmlns:rdf="http://www.w3.org/1999/02/22-rdf-syntax-ns#"
   xmlns:svg="http://www.w3.org/2000/svg"
   xmlns="http://www.w3.org/2000/svg"
   xmlns:sodipodi="http://sodipodi.sourceforge.net/DTD/sodipodi-0.dtd"
   xmlns:inkscape="http://www.inkscape.org/namespaces/inkscape"
   width="117.83016mm"
   height="32.783348mm"
   viewBox="0 0 417.50845 116.16147"
   id="svg4146"
   version="1.1"
   inkscape:version="0.91 r13725"
   sodipodi:docname="logo-athleteec-vert.svg">
  <defs
     id="defs4148">
    <linearGradient
       id="linearGradient6154"
       osb:paint="solid">
      <stop
         style="stop-color:#000000;stop-opacity:1;"
         offset="0"
         id="stop6156" />
    </linearGradient>
  </defs>
  <sodipodi:namedview
     id="base"
     pagecolor="#ffffff"
     bordercolor="#ffffff"
     borderopacity="0"
     inkscape:pageopacity="0.0"
     inkscape:pageshadow="2"
     inkscape:zoom="0.35"
     inkscape:cx="-599.21868"
     inkscape:cy="-407.63381"
     inkscape:document-units="px"
     inkscape:current-layer="layer1"
     showgrid="false"
     fit-margin-top="0"
     fit-margin-left="0"
     fit-margin-right="0"
     fit-margin-bottom="0"
     inkscape:window-width="1920"
     inkscape:window-height="1017"
     inkscape:window-x="-8"
     inkscape:window-y="-8"
     inkscape:window-maximized="1" />
  <metadata
     id="metadata4151">
    <rdf:RDF>
      <cc:Work
         rdf:about="">
        <dc:format>image/svg+xml</dc:format>
        <dc:type
           rdf:resource="http://purl.org/dc/dcmitype/StillImage" />
        <dc:title></dc:title>
      </cc:Work>
    </rdf:RDF>
  </metadata>
  <g
     inkscape:label="Calque 1"
     inkscape:groupmode="layer"
     id="layer1"
     transform="translate(-9.9329662,-8.566922)">
    <path
       d="m 66.492188,8.5683594 c -0.649251,0.060197 1.470703,1.9863286 1.470703,1.9863286 0,0 -1.888438,-0.252001 -3.648438,-0.375 -1.762,-0.127001 -0.126953,1.003906 -0.126953,1.003906 L 60.917969,11.8125 c -3.271,1.258 2.892578,2.767578 2.892578,2.767578 2.012,0.126 2.263672,1.259766 2.263672,1.259766 -4.025,0.628 -0.878907,2.011718 -0.878907,2.011718 0,0 1.007672,-1.006 2.013672,-0.125 1.008,0.881002 4.904297,0 4.904297,0 2.768,-1.633999 7.169875,2.389672 7.171875,2.388672 0,1.51 10.441406,6.541016 10.441406,6.541016 -1.509,1.886 2.769532,10.820312 2.769532,10.820312 -2.39,0.252001 -13.210938,8.806641 -13.210938,8.806641 -3.145,1.26 -5.660703,6.290734 -15.095703,7.802735 -9.435,1.509999 -10.691406,13.585937 -10.691406,13.585937 -7.421001,2.138 -10.56736,10.314312 -10.943359,11.195313 -0.378,0.881 -2.894532,2.767578 -2.894532,2.767578 -12.204,2.767 -18.492093,17.865141 -19.246094,18.369144 -0.755,0.502 -0.881156,3.14262 -5.410156,2.64062 -4.528,-0.504 -3.521484,3.39649 -3.521484,3.39649 0,0 -3.0189068,13.45751 -0.628906,16.72851 2.39,3.27 4.025484,1.76195 3.396484,0.37695 -0.63,-1.383 0.628906,-5.15429 0.628906,-5.15429 0,0 -1.259047,1.25609 0.376953,-0.50391 1.635,-1.762 4.905203,-7.17364 5.408203,-8.30664 0.503,-1.133 4.779297,-5.78516 4.779297,-5.78516 3.145,-1.385 10.568266,-8.429589 11.072266,-9.058589 0.501,-0.629 2.514484,-2.264625 3.646484,-2.515625 1.132,-0.251 6.542875,-2.515485 7.171875,-3.396485 0.629,-0.881 5.15625,-2.892578 5.15625,-2.892578 8.049,-2.894 15.095704,-12.582031 15.095704,-12.582031 0.126999,2.014 13.335937,7.421875 13.335937,7.421875 1.258,0.127 4.652344,2.517578 4.652344,2.517578 -2.517,0.501 -8.177735,10.189453 -8.177735,10.189453 -1.257,2.012 -10.564453,8.931642 -10.564453,8.931642 -5.283,3.271 -1.258,5.91201 -0.125,6.41601 1.131,0.502 7.546875,5.15625 7.546875,5.15625 2.013,1.762 5.030782,2.89472 7.925782,1.88672 2.893,-1.006 0.250046,-2.89258 -0.126954,-2.89258 -0.378,0 -1.759718,-0.50381 -2.011718,-1.13281 -0.252,-0.629 -2.013532,-3.39639 -2.769532,-4.15039 -0.754,-0.756 -0.880906,-3.3963 -0.628906,-4.5293 0.251,-1.131 4.277344,-4.400386 4.277344,-4.400386 6.542,-3.269 13.71289,-10.064453 13.71289,-10.064453 0.88,-1.006 2.765626,-1.636719 2.765626,-1.636719 4.654002,-3.019999 0.251953,-7.671874 0.251953,-7.671874 l -1.134766,-1.890626 c -1.887,-5.158 -15.597656,-15.095703 -15.597656,-15.095703 0.378,-1.51 11.070312,-1.382812 11.070312,-1.382812 12.830999,-1.889 12.580079,-7.548828 12.580079,-7.548828 0,0 -0.12505,-1.510094 0.25195,0.503906 0.375,2.012 7.17188,10.1875 7.17188,10.1875 l 1.38281,1.511719 c 1.382,1.512 3.52148,-1.007813 3.52148,-1.007813 1.383,-0.754 6.79297,-8.050781 6.79297,-8.050781 0.756,-1.508 4.27735,-4.527344 4.27735,-4.527344 1.132,-0.504 3.77234,-2.515343 4.40234,-4.527344 0.629,-2.012999 1.13214,-1.886249 -0.88086,-4.78125 -2.013,-2.892999 -3.14648,0.126954 -3.14648,0.126954 l -0.75391,-1.00586 c -0.755,-1.006 -1.00586,1.634766 -1.00586,1.634766 0,0 -0.50472,0.880812 -1.38672,1.132812 -0.879,0.251 -1.25676,2.138485 -1.63476,3.521485 -0.378,1.383 -4.02539,5.535156 -4.02539,5.535156 -2.264,0.754 -4.7793,3.019531 -4.7793,3.019531 -0.754,-2.518 -4.02539,-6.166015 -4.02539,-6.166015 0.125,-1.131 -0.75391,-3.017579 -0.75391,-3.017579 -0.631,-1.887 1.00586,-0.125 1.00586,-0.125 1.634,2.139001 3.52149,0.753907 3.52149,0.753907 -0.125,-0.377 0.88276,-0.753907 1.38476,-0.753907 0.502,10e-7 0.12595,-0.755765 0.37695,-1.384765 0.25201,-0.627 1.00782,-0.251953 1.00782,-0.251953 l 0.8789,-0.88086 c 2.14,1.635 1.76172,-4.02539 1.76172,-4.02539 1.385,-1.257 1.50977,-4.025391 1.50977,-4.025391 0.755,-0.252 0.75586,-1.634765 0.75586,-1.634765 -7.295,-11.572001 -15.22071,-4.654297 -15.22071,-4.654297 -3.899,-2.138 -7.423824,1.382812 -7.423824,1.382812 -1.133,-2.893 -6.791015,-9.9375 -6.791015,-9.9375 -0.63,-2.516 -16.732282,-8.428687 -17.613282,-8.554687 -0.88,-0.126 -3.520343,-1.763532 -4.277343,-2.644532 -0.753,-0.8799992 -3.898438,-1.7597652 -3.898438,-1.7597652 -0.22,-0.078625 -0.37014,-0.108209 -0.46289,-0.099609 z M 134.38867,67.394531 c -1.30666,0 -2.3869,0.306589 -3.24023,0.919922 -0.85334,0.613333 -1.5611,1.306745 -2.1211,2.080078 l -17.16015,24.199219 9.80078,0 12.56055,-17.759766 4.79882,7.080078 c 0.45334,0.640001 0.92039,1.333412 1.40039,2.080079 0.50667,0.72 0.94698,1.320781 1.32032,1.800781 -0.64,-0.05333 -1.3993,-0.08008 -2.2793,-0.08008 l -2.48047,0 -6.7207,0 -5,6.878906 31.12109,0 -16.7207,-24.199219 c -0.58667,-0.853333 -1.30682,-1.55914 -2.16016,-2.11914 -0.82666,-0.586667 -1.8658,-0.88086 -3.11914,-0.88086 z m 19.19531,0.439453 -5.35937,6.960938 12.56055,0 0,19.798828 8.27929,0 0,-19.798828 9.56055,0 5.35938,-6.960938 -30.4004,0 z m 32.94141,0 0,26.759766 8.32031,0 0,-10.318359 15.91992,0 0,10.318359 8.24024,0 0,-26.759766 -8.24024,0 0,9.480469 -15.91992,0 0,-9.480469 -8.32031,0 z m 37.57813,0 0,26.759766 23.64062,0 5.35938,-6.878906 -20.71875,0 0,-19.88086 -8.28125,0 z m 31.79687,0 0,26.759766 25.76172,0 5.31836,-6.878906 -22.75977,0 0,-3.640625 16.44141,0 4.75977,-6.080078 -21.20118,0 0,-3.199219 17.32032,0 5.35937,-6.960938 -31,0 z m 36.74609,0 -5.35937,6.960938 12.56055,0 0,19.798828 8.27929,0 0,-19.798828 9.56055,0 5.35938,-6.960938 -30.4004,0 z m 32.94141,0 0,26.759766 25.76172,0 5.31836,-6.878906 -22.75977,0 0,-3.640625 16.44141,0 4.75977,-6.080078 -21.20118,0 0,-3.199219 17.32032,0 5.35937,-6.960938 -31,0 z m 33.90625,0 0,26.759766 25.76172,0 5.31836,-6.878906 -22.75977,0 0,-3.640625 16.44141,0 4.75976,-6.080078 -21.20117,0 0,-3.199219 17.32032,0 5.35937,-6.960938 -31,0 z m 49.1875,0 c -2.32,0 -4.46807,0.320938 -6.44141,0.960938 -1.97333,0.613333 -3.67914,1.506354 -5.11914,2.679687 -1.41333,1.146667 -2.5327,2.53349 -3.35937,4.160157 -0.8,1.6 -1.20117,3.373645 -1.20117,5.320312 0,1.946667 0.40117,3.759453 1.20117,5.439453 0.82667,1.653334 1.94604,3.093646 3.35937,4.320313 1.44,1.2 3.14581,2.14651 5.11914,2.839844 1.97334,0.693333 4.12141,1.039062 6.44141,1.039062 l 13.43945,0 5.32032,-6.878906 -18.75977,0 c -1.12,0 -2.16109,-0.14612 -3.12109,-0.439453 -0.96,-0.32 -1.79953,-0.760313 -2.51953,-1.320313 -0.69334,-0.56 -1.24063,-1.226667 -1.64063,-2 -0.37333,-0.8 -0.55859,-1.680625 -0.55859,-2.640625 0,-0.96 0.19961,-1.840625 0.59961,-2.640625 0.4,-0.8 0.94729,-1.479062 1.64062,-2.039062 0.69333,-0.586667 1.51852,-1.039375 2.47852,-1.359375 0.96,-0.32 2.00109,-0.480469 3.12109,-0.480469 l 13.43945,0 5.32032,-6.960938 -18.75977,0 z"
       id="path3"
       style="fill:#fff;fill-opacity:1;stroke:none;stroke-opacity:1"
       inkscape:connector-curvature="0" />
  </g>
</svg>
