<?xml version="1.0" encoding="UTF-8" standalone="no"?>
<!-- Generator: Adobe Illustrator 16.0.0, SVG Export Plug-In . SVG Version: 6.00 Build 0)  -->

<svg
   xmlns:dc="http://purl.org/dc/elements/1.1/"
   xmlns:cc="http://creativecommons.org/ns#"
   xmlns:rdf="http://www.w3.org/1999/02/22-rdf-syntax-ns#"
   xmlns:svg="http://www.w3.org/2000/svg"
   xmlns="http://www.w3.org/2000/svg"
   xmlns:sodipodi="http://sodipodi.sourceforge.net/DTD/sodipodi-0.dtd"
   xmlns:inkscape="http://www.inkscape.org/namespaces/inkscape"
   version="1.1"
   id="Calque_1"
   x="0px"
   y="0px"
   width="125.835px"
   height="116.276px"
   viewBox="0 0 125.835 116.276"
   enable-background="new 0 0 125.835 116.276"
   xml:space="preserve"
   inkscape:version="0.91 r13725"
   sodipodi:docname="runner-vert.svg"
   inkscape:export-filename="C:\Users\Bertrand Jaunet\Desktop\runner-vert.png"
   inkscape:export-xdpi="90"
   inkscape:export-ydpi="90"><metadata
     id="metadata9"><rdf:RDF><cc:Work
         rdf:about=""><dc:format>image/svg+xml</dc:format><dc:type
           rdf:resource="http://purl.org/dc/dcmitype/StillImage" /><dc:title></dc:title></cc:Work></rdf:RDF></metadata><defs
     id="defs7" /><sodipodi:namedview
     pagecolor="#ffffff"
     bordercolor="#666666"
     borderopacity="1"
     objecttolerance="10"
     gridtolerance="10"
     guidetolerance="10"
     inkscape:pageopacity="0"
     inkscape:pageshadow="2"
     inkscape:window-width="1920"
     inkscape:window-height="1017"
     id="namedview5"
     showgrid="false"
     inkscape:zoom="2.0296536"
     inkscape:cx="-26.999322"
     inkscape:cy="58.138001"
     inkscape:window-x="-8"
     inkscape:window-y="-8"
     inkscape:window-maximized="1"
     inkscape:current-layer="Calque_1" /><path
     d="M65.021,9.159c0,0-3.897,0.881-4.905,0c-1.006-0.881-2.012,0.126-2.012,0.126S54.958,7.9,58.983,7.272  c0,0-0.252-1.133-2.264-1.259c0,0-6.164-1.509-2.893-2.767l3.27-0.63c0,0-1.635-1.131,0.127-1.004  c1.76,0.123,3.648,0.375,3.648,0.375s-2.768-2.516-1.008-1.887c0,0,3.146,0.881,3.899,1.761c0.757,0.881,3.397,2.517,4.277,2.643  c0.881,0.126,16.983,6.039,17.613,8.555c0,0,5.659,7.045,6.792,9.938c0,0,3.523-3.521,7.422-1.383c0,0,7.926-6.918,15.221,4.654  c0,0,0,1.383-0.755,1.635c0,0-0.125,2.768-1.51,4.025c0,0,0.378,5.662-1.762,4.027l-0.878,0.879c0,0-0.757-0.375-1.009,0.252  c-0.251,0.629,0.126,1.385-0.376,1.385s-1.51,0.377-1.385,0.754c0,0-1.887,1.385-3.521-0.754c0,0-1.637-1.762-1.006,0.125  c0,0,0.879,1.887,0.754,3.018c0,0,3.271,3.648,4.025,6.166c0,0,2.516-2.266,4.78-3.02c0,0,3.647-4.152,4.025-5.535  s0.756-3.27,1.635-3.521c0.882-0.252,1.385-1.133,1.385-1.133s0.252-2.641,1.007-1.635c0.754,1.006,0.754,1.006,0.754,1.006  s1.133-3.02,3.146-0.127c2.013,2.895,1.51,2.768,0.881,4.781c-0.63,2.012-3.271,4.023-4.403,4.527c0,0-3.521,3.021-4.277,4.529  c0,0-5.41,7.297-6.793,8.051c0,0-2.139,2.518-3.521,1.006c-1.383-1.51-1.383-1.51-1.383-1.51s-6.797-8.176-7.172-10.188  c-0.377-2.014-0.252-0.504-0.252-0.504s0.252,5.66-12.579,7.549c0,0-10.693-0.127-11.071,1.383c0,0,13.711,9.938,15.598,15.096  l1.135,1.889c0,0,4.402,4.652-0.252,7.672c0,0-1.887,0.631-2.767,1.637c0,0-7.17,6.795-13.712,10.064c0,0-4.026,3.271-4.277,4.402  c-0.252,1.133-0.126,3.773,0.628,4.529c0.756,0.754,2.517,3.521,2.769,4.15s1.635,1.133,2.013,1.133  c0.377,0,3.019,1.887,0.126,2.893c-2.895,1.008-5.913-0.125-7.926-1.887c0,0-6.416-4.654-7.547-5.156  c-1.133-0.504-5.158-3.145,0.125-6.416c0,0,9.309-6.92,10.566-8.932c0,0,5.661-9.688,8.178-10.189c0,0-3.396-2.391-4.654-2.518  c0,0-13.209-5.408-13.336-7.422c0,0-7.045,9.688-15.094,12.582c0,0-4.529,2.012-5.158,2.893s-6.039,3.145-7.171,3.396  s-3.146,1.887-3.647,2.516c-0.504,0.629-7.926,7.674-11.071,9.059c0,0-4.277,4.652-4.78,5.785c-0.503,1.133-3.774,6.543-5.409,8.305  c-1.636,1.76-0.377,0.504-0.377,0.504s-1.259,3.773-0.629,5.156c0.629,1.385-1.006,2.893-3.396-0.377  c-2.39-3.271,0.629-16.73,0.629-16.73s-1.006-3.9,3.522-3.396c4.529,0.502,4.655-2.139,5.41-2.641  c0.754-0.504,7.043-15.602,19.247-18.369c0,0,2.516-1.887,2.894-2.768c0.376-0.881,3.521-9.057,10.942-11.195  c0,0,1.258-12.076,10.693-13.586c9.435-1.512,11.951-6.543,15.096-7.803c0,0,10.819-8.553,13.209-8.805  c0,0-4.277-8.936-2.768-10.822c0,0-10.441-5.031-10.441-6.541C72.192,11.548,67.789,7.525,65.021,9.159z"
     id="path3"
     style="fill:#7cba13;fill-opacity:1" /></svg>