<?xml version="1.0" encoding="UTF-8" standalone="no"?>
<!-- Created with Inkscape (http://www.inkscape.org/) -->

<svg
   xmlns:dc="http://purl.org/dc/elements/1.1/"
   xmlns:cc="http://creativecommons.org/ns#"
   xmlns:rdf="http://www.w3.org/1999/02/22-rdf-syntax-ns#"
   xmlns:svg="http://www.w3.org/2000/svg"
   xmlns="http://www.w3.org/2000/svg"
   xmlns:sodipodi="http://sodipodi.sourceforge.net/DTD/sodipodi-0.dtd"
   xmlns:inkscape="http://www.inkscape.org/namespaces/inkscape"
   width="99.821404mm"
   height="32.783348mm"
   viewBox="0 0 353.69788 116.16147"
   id="svg4170"
   version="1.1"
   inkscape:version="0.91 r13725"
   style="shape-rendering:crispEdges"
   sodipodi:docname="logo-athleteec-contour.svg">
  <defs
     id="defs4172" />
  <sodipodi:namedview
     id="base"
     pagecolor="#ffffff"
     bordercolor="#ffffff"
     borderopacity="0"
     inkscape:pageopacity="0.0"
     inkscape:pageshadow="2"
     inkscape:zoom="2.8"
     inkscape:cx="217.65688"
     inkscape:cy="-34.04361"
     inkscape:document-units="px"
     inkscape:current-layer="layer1"
     showgrid="false"
     inkscape:showpageshadow="false"
     fit-margin-top="0"
     fit-margin-left="0"
     fit-margin-right="0"
     fit-margin-bottom="0"
     inkscape:window-width="1920"
     inkscape:window-height="1017"
     inkscape:window-x="-8"
     inkscape:window-y="-8"
     inkscape:window-maximized="1" />
  <metadata
     id="metadata4175">
    <rdf:RDF>
      <cc:Work
         rdf:about="">
        <dc:format>image/svg+xml</dc:format>
        <dc:type
           rdf:resource="http://purl.org/dc/dcmitype/StillImage" />
        <dc:title></dc:title>
      </cc:Work>
    </rdf:RDF>
  </metadata>
  <g
     inkscape:label="Calque 1"
     inkscape:groupmode="layer"
     id="layer1"
     transform="translate(-51.003279,-308.92435)">
    <path
       style="color:#000000;font-style:normal;font-variant:normal;font-weight:normal;font-stretch:normal;font-size:medium;line-height:normal;font-family:sans-serif;text-indent:0;text-align:start;text-decoration:none;text-decoration-line:none;text-decoration-style:solid;text-decoration-color:#000000;letter-spacing:normal;word-spacing:normal;text-transform:none;direction:ltr;block-progression:tb;writing-mode:lr-tb;baseline-shift:baseline;text-anchor:start;white-space:normal;clip-rule:nonzero;display:inline;overflow:visible;visibility:visible;opacity:1;isolation:auto;mix-blend-mode:normal;color-interpolation:sRGB;color-interpolation-filters:linearRGB;solid-color:#000000;solid-opacity:1;fill-opacity:1;fill-rule:nonzero;stroke:none;stroke-width:1;stroke-linecap:butt;stroke-linejoin:miter;stroke-miterlimit:4;stroke-dasharray:none;stroke-dashoffset:0;stroke-opacity:1;color-rendering:auto;image-rendering:auto;shape-rendering:auto;text-rendering:auto;enable-background:accumulate"
       d="m 108.06445,308.37695 -0.54687,0.0508 c -0.10782,0.01 -0.24576,0.044 -0.3711,0.15235 -0.12533,0.10838 -0.19392,0.28305 -0.20312,0.41211 -0.0156,0.21903 0.0568,0.32456 0.12109,0.4375 l 0,0.0449 0.0117,-0.002 c 0.005,0.009 0.005,0.0262 0.01,0.0351 0.14773,0.25992 0.36179,0.5086 0.59375,0.76172 -0.71532,-0.0852 -1.16409,-0.15403 -2.25781,-0.23047 -0.48805,-0.0352 -0.81525,-0.0654 -1.13868,0.23633 -0.16171,0.15088 -0.23452,0.42245 -0.20508,0.60352 0.0259,0.15897 0.0911,0.25789 0.1543,0.35156 l -2.38086,0.45703 -0.041,0.0156 c -0.44906,0.17271 -0.77365,0.3513 -1.00782,0.61329 -0.23417,0.26198 -0.32388,0.67978 -0.20898,0.99023 0.2298,0.6209 0.7982,0.88654 1.40234,1.17188 1.2083,0.57066 2.76758,0.94531 2.76758,0.94531 l 0.043,0.01 0.0449,0.002 c 0.86165,0.054 1.24743,0.30329 1.48242,0.50976 -0.49492,0.12633 -1.06938,0.22701 -1.33593,0.44141 -0.2067,0.16626 -0.36587,0.40525 -0.39453,0.66797 -0.0287,0.26271 0.065,0.49326 0.17773,0.66211 0.22549,0.33769 0.54002,0.53851 0.80078,0.69531 0.26077,0.1568 0.48438,0.25391 0.48438,0.25391 l 0.3125,0.13867 0.24218,-0.24219 c 0,0 0.1881,-0.17874 0.45118,-0.27734 0.26307,-0.0986 0.50704,-0.14817 0.87695,0.17578 l 0.002,0 c 0.40327,0.35246 0.92274,0.44692 1.47852,0.49218 0.55578,0.0453 1.16211,0.0159 1.73047,-0.041 1.13671,-0.11379 2.13281,-0.33984 2.13281,-0.33984 l 0.0781,-0.0176 0.0664,-0.041 c 0.5647,-0.33335 1.22062,-0.38657 1.94336,-0.2539 0.72274,0.13266 1.49245,0.45815 2.18555,0.84179 0.6931,0.38365 1.31168,0.82165 1.7539,1.16211 0.22112,0.17023 0.39857,0.31751 0.51953,0.41992 0.0605,0.0512 0.1056,0.0918 0.13672,0.11914 0.0156,0.0137 0.027,0.024 0.0352,0.0312 0.003,0.002 0.006,0.004 0.008,0.006 l -0.16211,-0.36914 c 0,0.47687 0.27744,0.75395 0.59766,1.07032 0.32021,0.31636 0.74533,0.64677 1.24804,0.99804 1.00544,0.70256 2.31958,1.47736 3.63282,2.20508 2.44048,1.35237 4.54243,2.36429 4.875,2.52539 -0.24157,0.65268 -0.26257,1.41716 -0.10938,2.3125 0.19723,1.15269 0.59918,2.46651 1.04492,3.7168 0.79738,2.2366 1.57074,3.84483 1.76172,4.25 -0.26353,0.0885 -0.5019,0.13243 -0.8164,0.28711 -0.54775,0.26938 -1.17741,0.63064 -1.86133,1.05468 -1.36785,0.84809 -2.94984,1.94639 -4.45703,3.03516 -3.0144,2.17754 -5.72656,4.32031 -5.72656,4.32031 l 0.125,-0.0723 c -1.74311,0.69835 -3.14069,2.29601 -5.29883,3.86914 -2.15815,1.57313 -5.05264,3.16287 -9.69141,3.90625 -4.91823,0.78796 -7.724702,4.35079 -9.257812,7.64258 -1.414699,3.03754 -1.748309,5.65638 -1.798828,6.08203 -3.683376,1.16372 -6.324084,3.7225 -8.074219,6.1289 -1.801318,2.47678 -2.716441,4.83479 -2.882812,5.22461 -0.04127,0.0955 -0.242612,0.37212 -0.513672,0.6543 -0.271561,0.2827 -0.612617,0.59224 -0.943359,0.87695 -0.639152,0.55021 -1.196645,0.96817 -1.236329,0.99805 -6.197255,1.46238 -10.854511,5.96903 -14.05664,10.16602 -1.614452,2.11603 -2.864142,4.15432 -3.75586,5.69336 -0.445858,0.76951 -0.802098,1.41483 -1.066406,1.875 -0.132154,0.23008 -0.242037,0.41582 -0.322265,0.53906 -0.08023,0.12323 -0.190309,0.19936 -0.06445,0.11523 -0.351705,0.23385 -0.492313,0.54675 -0.677734,0.85157 -0.185421,0.30481 -0.386177,0.6204 -0.679688,0.90039 -0.587021,0.55997 -1.552119,1.04896 -3.720703,0.80859 -1.20045,-0.13362 -2.095512,0.0173 -2.753906,0.375 -0.658394,0.35772 -1.04368,0.92003 -1.232422,1.4668 -0.339915,0.9847 -0.143063,1.8567 -0.09766,2.04101 -0.02058,0.092 -0.747935,3.33731 -1.201172,7.08789 -0.229807,1.90168 -0.386381,3.90876 -0.332031,5.67188 0.05435,1.76312 0.282427,3.28333 1.005859,4.27344 0.624334,0.85421 1.213766,1.4197 1.769531,1.76367 0.555766,0.34397 1.095654,0.47085 1.574219,0.36328 0.478566,-0.10757 0.845942,-0.46645 0.998047,-0.89063 0.152106,-0.42417 0.119172,-0.90969 -0.08594,-1.36132 -0.191804,-0.42106 -0.115879,-1.70317 0.113281,-2.78711 0.229159,-1.08395 0.535156,-2.00391 0.535156,-2.00391 l -0.01563,-0.01 c 0.106883,-0.11666 0.127743,-0.14315 0.285156,-0.3125 0.877919,-0.94611 2.093448,-2.73588 3.185547,-4.46093 1.0921,-1.72506 2.019549,-3.3162 2.314453,-3.98047 0.07063,-0.15909 0.430791,-0.6899 0.894532,-1.27539 0.46374,-0.5855 1.040406,-1.26894 1.603515,-1.91797 1.112014,-1.28169 2.13769,-2.39708 2.164063,-2.42578 1.725099,-0.80133 4.24217,-2.82658 6.513672,-4.80469 1.161694,-1.01165 2.239939,-1.99834 3.060547,-2.77344 0.410303,-0.38755 0.756125,-0.72277 1.017578,-0.98242 0.261453,-0.25965 0.421479,-0.42013 0.529296,-0.55469 l 0,-0.002 c 0.178518,-0.22413 0.810158,-0.80676 1.492188,-1.30664 0.68203,-0.49988 1.46991,-0.94186 1.873047,-1.03125 0.711932,-0.15786 2.281529,-0.77877 3.871094,-1.49414 0.794782,-0.35769 1.574241,-0.73498 2.207031,-1.08594 0.63279,-0.35096 1.09532,-0.60006 1.390625,-1.01367 0.04465,-0.0625 0.431609,-0.38653 0.925781,-0.6875 0.494173,-0.30097 1.110395,-0.63056 1.708984,-0.9336 1.197179,-0.60606 2.320313,-1.10546 2.320313,-1.10546 l -0.0332,0.0137 c 4.147959,-1.49139 7.955238,-4.68277 10.749998,-7.49414 2.53242,-2.54747 3.8512,-4.36899 4.14844,-4.76953 0.12178,0.14734 0.14012,0.33176 0.29883,0.47656 0.4107,0.37471 0.95497,0.76173 1.59765,1.16601 1.28538,0.80857 2.95895,1.67819 4.62696,2.48438 3.336,1.61237 6.64843,2.96875 6.64843,2.96875 l 0.0664,0.0273 0.0723,0.008 c 0.1809,0.0183 0.61685,0.16736 1.08984,0.39843 0.47299,0.23108 1.00509,0.53421 1.5,0.83594 0.6187,0.3772 0.81007,0.52031 1.14258,0.74609 -0.56982,0.35709 -1.13475,0.84008 -1.73828,1.50782 -0.90897,1.00565 -1.86053,2.27492 -2.73243,3.52734 -1.73912,2.49812 -3.1506,4.91473 -3.1582,4.92774 -0.23554,0.37701 -1.05148,1.21497 -2.08984,2.13671 -1.03836,0.92175 -2.31454,1.97151 -3.55274,2.95899 -2.47638,1.97496 -4.79882,3.70117 -4.79882,3.70117 -1.34488,0.8394 -2.15555,1.66522 -2.5586,2.49414 -0.40728,0.83763 -0.36077,1.67508 -0.0703,2.34961 0.58091,1.34906 1.93768,2.13524 2.59961,2.42969 0.18111,0.0804 0.82746,0.4736 1.58203,0.97656 0.75457,0.50296 1.66049,1.13038 2.53125,1.74219 1.74152,1.22362 3.34375,2.38476 3.34375,2.38476 2.1195,1.83843 5.29258,3.03106 8.38281,1.95508 0.79133,-0.27517 1.30295,-0.63858 1.54102,-1.13281 0.23807,-0.49423 0.11391,-1.02827 -0.10938,-1.41406 -0.22328,-0.3858 -0.53881,-0.68369 -0.83398,-0.90625 -0.14759,-0.11129 -0.29049,-0.20192 -0.42383,-0.27149 -0.13334,-0.0696 -0.20726,-0.14062 -0.46289,-0.14062 0.0166,0 -0.13203,-0.0172 -0.29297,-0.0664 -0.16094,-0.0492 -0.35733,-0.12447 -0.54492,-0.21484 -0.37519,-0.18075 -0.68529,-0.47309 -0.71094,-0.53711 -0.18143,-0.45286 -0.668,-1.24056 -1.24219,-2.11719 -0.57418,-0.87663 -1.18159,-1.7453 -1.63867,-2.20117 -0.18123,-0.18171 -0.4579,-0.97389 -0.54687,-1.82227 -0.089,-0.84838 -0.0496,-1.77509 0.0547,-2.24414 l 0,-0.002 c 0.0125,-0.0565 0.26612,-0.4968 0.66016,-0.94141 0.39404,-0.4446 0.912,-0.95083 1.42383,-1.42383 1.01678,-0.93963 1.99258,-1.73334 2.00586,-1.74414 6.63686,-3.34161 13.7539,-10.09961 13.75391,-10.09961 l 0.0176,-0.0156 0.0156,-0.0176 c 0.35746,-0.40863 1.00479,-0.80737 1.55664,-1.07617 0.55185,-0.2688 0.99219,-0.41602 0.99219,-0.41602 l 0.0605,-0.0215 0.0527,-0.0332 c 1.24288,-0.80652 1.93649,-1.77356 2.21289,-2.75782 0.27639,-0.98425 0.14268,-1.95527 -0.13867,-2.79101 -0.54067,-1.60603 -1.59448,-2.73377 -1.67969,-2.82422 l -1.1211,-1.86719 0.041,0.0859 c -0.52107,-1.42432 -1.765,-3.02649 -3.33594,-4.70508 -1.57093,-1.67858 -3.47381,-3.41221 -5.31445,-4.98437 -3.43505,-2.93402 -6.23031,-4.95812 -6.64648,-5.26172 0.01,-0.005 0.001,-0.001 0.0117,-0.006 0.27053,-0.11613 0.69358,-0.23175 1.20118,-0.32813 1.01518,-0.19275 2.37383,-0.31866 3.72265,-0.39648 2.69765,-0.15565 5.35938,-0.125 5.35938,-0.125 l 0.0391,0 0.0391,-0.006 c 6.48716,-0.95505 9.75201,-2.87647 11.39453,-4.63672 0.72337,-0.77522 1.03693,-1.46902 1.25782,-2.0625 0.24053,0.56837 0.46582,1.11322 0.96679,1.875 0.70096,1.06586 1.59144,2.28257 2.46875,3.43555 1.75463,2.30595 3.45899,4.35742 3.45899,4.35742 l 0.008,0.008 1.39062,1.51953 c 0.43543,0.47639 1.01099,0.67345 1.53126,0.64258 0.52026,-0.0309 0.98454,-0.24532 1.38085,-0.49219 0.79264,-0.49372 1.35743,-1.16992 1.35743,-1.16992 l -0.14063,0.11524 c 0.52304,-0.28516 1.06715,-0.8817 1.7793,-1.6836 0.71214,-0.8019 1.52118,-1.78865 2.28711,-2.75195 1.53185,-1.92661 2.88867,-3.75781 2.88867,-3.75781 l 0.0254,-0.0332 0.0195,-0.0391 c 0.29857,-0.59556 1.35973,-1.7634 2.32227,-2.69531 0.96253,-0.93191 1.83398,-1.67969 1.83398,-1.67969 l -0.12305,0.0781 c 0.6595,-0.29364 1.60972,-0.93614 2.52735,-1.78711 0.91762,-0.85098 1.79001,-1.89595 2.15039,-3.04688 0.30233,-0.96756 0.63295,-1.486 0.57031,-2.25 -0.0626,-0.764 -0.50388,-1.50418 -1.51953,-2.96484 -0.53909,-0.77476 -1.05385,-1.21909 -1.59961,-1.39258 -0.54576,-0.17349 -1.07726,-0.008 -1.43359,0.25391 -0.37319,0.27464 -0.36065,0.43603 -0.51758,0.7207 l -0.35742,-0.47656 c -0.12992,-0.17311 -0.27988,-0.32481 -0.51563,-0.39649 -0.23575,-0.0717 -0.52212,0.0135 -0.67773,0.14063 -0.31123,0.25426 -0.38516,0.55207 -0.47461,0.85547 -0.15476,0.52487 -0.19014,0.96797 -0.20508,1.11523 -0.0257,0.0399 -0.44095,0.69714 -1.05664,0.87305 -0.7395,0.21116 -1.06892,0.91967 -1.33789,1.64258 -0.26898,0.7229 -0.45766,1.55195 -0.64258,2.22851 -0.0574,0.20987 -0.33709,0.73205 -0.7207,1.29883 -0.38362,0.56678 -0.86891,1.20908 -1.34375,1.80859 -0.92969,1.17379 -1.77753,2.13955 -1.81446,2.18164 -2.01421,0.73262 -3.7351,2.14805 -4.30859,2.64844 -0.49463,-1.21746 -1.23675,-2.51216 -2.0293,-3.57812 -0.88756,-1.19376 -1.61753,-2.00802 -1.68359,-2.08203 0.003,-0.63344 -0.11851,-1.2963 -0.30273,-1.84961 -0.13853,-0.41608 -0.20355,-0.53822 -0.28907,-0.73633 0.002,0.002 0.0293,0.0254 0.0293,0.0254 l -0.0293,-0.0371 c 0.90499,1.18467 2.01132,1.46836 2.82813,1.37305 0.8168,-0.0953 1.38476,-0.51954 1.38476,-0.51954 l 0.29493,-0.21484 -0.0566,-0.16797 c 0.0392,-0.0279 0.0657,-0.0515 0.13867,-0.0859 0.22974,-0.10858 0.58702,-0.1875 0.71289,-0.1875 0.25128,0 0.57723,-0.18603 0.68554,-0.41015 0.10832,-0.22413 0.0959,-0.39536 0.0957,-0.54883 -4.3e-4,-0.30693 -0.009,-0.57212 0.0586,-0.74219 0.0242,-0.0603 0.0206,-0.0406 0.0215,-0.041 8.8e-4,-4.4e-4 0.028,-0.0113 0.0781,-0.008 0.10027,0.007 0.22266,0.0586 0.22266,0.0586 l 0.32226,0.16015 0.91211,-0.91211 c 0.18206,0.0843 0.35803,0.22098 0.55078,0.22266 0.34598,0.003 0.66511,-0.17553 0.86719,-0.4043 0.40416,-0.45753 0.53457,-1.07571 0.62695,-1.7207 0.17222,-1.20231 0.0874,-2.36936 0.0762,-2.54492 0.68886,-0.73361 1.06951,-1.69627 1.26757,-2.51953 0.18871,-0.78435 0.20939,-1.27267 0.21875,-1.42774 0.36617,-0.28019 0.58928,-0.67475 0.67578,-1.02148 0.11153,-0.44703 0.10938,-0.84375 0.10938,-0.84375 l 0,-0.14453 -0.0762,-0.12305 c -3.71503,-5.89312 -7.75065,-7.19646 -10.81836,-6.89648 -2.83226,0.27695 -4.64577,1.74481 -4.93555,1.98632 -1.9785,-0.9277 -3.89308,-0.65878 -5.26758,-0.043 -1.15424,0.51714 -1.6029,0.99507 -1.89843,1.26367 -0.72347,-1.57556 -2.12874,-3.70558 -3.56446,-5.66406 -1.56358,-2.13292 -2.98242,-3.90039 -2.98242,-3.90039 l 0.0937,0.1914 c -0.13409,-0.53553 -0.5351,-0.9228 -1.07226,-1.35351 -0.53717,-0.43072 -1.24049,-0.87871 -2.06055,-1.3418 -1.64013,-0.92619 -3.75038,-1.90979 -5.86719,-2.81836 -2.1168,-0.90857 -4.23822,-1.73933 -5.88867,-2.35352 -0.82523,-0.30709 -1.53213,-0.55933 -2.06445,-0.74023 -0.26617,-0.0904 -0.48775,-0.16354 -0.66211,-0.2168 -0.17436,-0.0533 -0.2742,-0.0857 -0.41211,-0.10547 -0.10449,-0.015 -0.42521,-0.12424 -0.78711,-0.29882 -0.3619,-0.17459 -0.78504,-0.41016 -1.20508,-0.66993 -0.83915,-0.51896 -1.6828,-1.16504 -1.97461,-1.5039 l -0.002,-0.002 c -0.5469,-0.63766 -1.5327,-1.01323 -2.43555,-1.35156 -0.88602,-0.33201 -1.64323,-0.54415 -1.67383,-0.55273 -0.0484,-0.0173 -0.0867,-0.0107 -0.13086,-0.0254 l 0,-0.15235 z m 0.47852,1.34571 c 0.30371,0.0928 0.46214,0.12754 0.97656,0.32031 0.85726,0.32124 1.81898,0.82517 2.02539,1.06641 l 0.002,0.002 c 0.46609,0.54244 1.31963,1.15312 2.20898,1.70312 0.44467,0.275 0.89256,0.52566 1.29687,0.72071 0.40432,0.19505 0.74457,0.33868 1.08008,0.38672 -0.0278,-0.004 0.10116,0.0258 0.25977,0.0742 0.15861,0.0485 0.37313,0.11683 0.63281,0.20508 0.51936,0.1765 1.22097,0.42799 2.03906,0.73242 1.6362,0.60888 3.74416,1.4356 5.8418,2.33594 2.09764,0.90034 4.18576,1.87516 5.76953,2.76953 0.79189,0.44719 1.45833,0.87519 1.92578,1.25 0.46745,0.37482 0.70707,0.72294 0.73047,0.81641 l 0.0254,0.10742 0.0684,0.084 c 0,0 1.40836,1.75461 2.95703,3.86718 1.54867,2.11258 3.24608,4.62779 3.75977,5.93946 l 0.27734,0.71289 0.54102,-0.54102 c 0,0 0.82144,-0.81796 2.09961,-1.39062 1.27817,-0.57267 2.93614,-0.89105 4.72851,0.0918 l 0.30664,0.16797 0.26172,-0.22851 c 0,0 1.87682,-1.62671 4.5957,-1.89258 2.69456,-0.26349 6.22957,0.76874 9.77735,6.31445 -0.004,0.0951 -3.5e-4,0.22357 -0.0586,0.45703 -0.0767,0.30736 -0.21708,0.51957 -0.33399,0.5586 l -0.32617,0.10937 -0.0156,0.3418 c 0,0 -0.0281,0.64685 -0.2207,1.44726 -0.19257,0.80041 -0.56224,1.71972 -1.125,2.23047 l -0.17969,0.16406 0.0176,0.24024 c 0,0 0.0859,1.39002 -0.0762,2.52148 -0.081,0.56574 -0.25956,1.05723 -0.38672,1.20118 -0.0636,0.072 -0.0644,0.0668 -0.10742,0.0664 -0.0431,-3.7e-4 -0.17757,-0.0291 -0.39258,-0.19336 l -0.34766,-0.26758 -0.99023,0.99414 c -0.0933,-0.0263 -0.0928,-0.05 -0.2168,-0.0586 -0.1708,-0.0119 -0.38168,0.002 -0.59375,0.10742 -0.21207,0.10559 -0.40409,0.3132 -0.50586,0.56641 -0.18313,0.45894 -0.12922,0.88606 -0.1289,1.11523 1e-5,0.012 4.8e-4,9.8e-4 0,0.0117 -0.30888,0.0326 -0.62416,0.0878 -0.92188,0.22852 -0.1842,0.0871 -0.35781,0.18719 -0.51172,0.34765 -0.0458,0.0478 -0.0233,0.16193 -0.0625,0.23243 -0.0273,0.0191 -0.36005,0.25827 -0.875,0.31835 -0.53543,0.0625 -1.1909,-0.03 -1.91992,-0.98437 l -0.0137,-0.0195 -0.0156,-0.0176 c 0,0 -0.39747,-0.45403 -0.84376,-0.73047 -0.11157,-0.0691 -0.22555,-0.13553 -0.40429,-0.16601 -0.17874,-0.0305 -0.51145,0.0523 -0.6543,0.27343 -0.14285,0.2211 -0.1276,0.41215 -0.10547,0.59961 0.0221,0.18746 0.0747,0.39088 0.16016,0.64649 l 0.01,0.0273 0.0117,0.0254 c 0,0 0.20794,0.44735 0.40235,1.03125 0.1944,0.5839 0.3537,1.31256 0.30859,1.72071 l -0.0254,0.22265 0.14844,0.16602 c 0,0 0.80366,0.89638 1.70117,2.10351 0.89751,1.20713 1.87972,2.7389 2.21875,3.8711 l 0.22656,0.75781 0.58594,-0.5293 c 0,0 2.51905,-2.22181 4.60351,-2.91601 l 0.12891,-0.043 0.0879,-0.10157 c 0,0 0.92016,-1.04672 1.88867,-2.26953 0.48426,-0.6114 0.98014,-1.26647 1.38672,-1.86718 0.40659,-0.60072 0.72578,-1.11602 0.85742,-1.59766 0.19309,-0.70644 0.38108,-1.51324 0.61524,-2.14258 0.23416,-0.62933 0.53433,-0.98946 0.67383,-1.02929 1.12966,-0.32277 1.68164,-1.36524 1.68164,-1.36524 l 0.0547,-0.0937 0.01,-0.10742 c 0,0 0.0669,-0.63752 0.20313,-1.09961 0.019,-0.0646 0.0175,-0.0493 0.041,-0.10156 l 1.16797,1.55664 0.32031,-0.85547 c 0,0 0.28818,-0.65962 0.64453,-0.92188 0.17818,-0.13112 0.30651,-0.17939 0.53907,-0.10547 0.23255,0.0739 0.61461,0.33802 1.08203,1.00977 0.99735,1.43434 1.31098,2.07694 1.34375,2.47656 0.0328,0.39963 -0.20068,0.82566 -0.52735,1.8711 -0.26962,0.86107 -1.03293,1.82665 -1.87695,2.60937 -0.84402,0.78272 -1.7814,1.39705 -2.25391,1.60742 l -0.0664,0.0293 -0.0566,0.0488 c 0,0 -0.88982,0.76302 -1.87696,1.71875 -0.98713,0.95573 -2.06405,2.0524 -2.52148,2.96484 l 0.0449,-0.0723 c 0,0 -1.34831,1.81823 -2.86719,3.72851 -0.75944,0.95514 -1.56075,1.93263 -2.25195,2.71094 -0.69119,0.77831 -1.34326,1.37691 -1.51172,1.46875 l -0.0801,0.0449 -0.0605,0.0703 c 0,0 -0.50337,0.5835 -1.125,0.97071 -0.31082,0.1936 -0.64095,0.32582 -0.91016,0.34179 -0.26921,0.016 -0.4788,-0.0407 -0.73437,-0.32031 l -1.36719,-1.49219 -0.004,-0.004 -0.0117,-0.0137 c -0.0143,-0.0172 -1.68683,-2.02961 -3.41797,-4.30469 -0.86926,-1.1424 -1.74844,-2.34599 -2.42773,-3.37891 -0.67929,-1.03292 -1.15002,-1.96238 -1.20508,-2.25781 -0.0954,-0.50969 -0.15769,-0.7939 -0.21093,-0.97656 -0.0133,-0.0457 -0.0261,-0.085 -0.0449,-0.13086 -0.0188,-0.0459 -0.006,-0.0919 -0.14843,-0.21875 -0.0178,-0.0159 -0.0412,-0.0335 -0.0684,-0.0508 -0.0272,-0.0173 -0.099,-0.0486 -0.0996,-0.0488 -0.001,-4.5e-4 -0.29574,-0.014 -0.29688,-0.0137 -5.7e-4,1.4e-4 -0.13423,0.0563 -0.13476,0.0566 -5.4e-4,3.2e-4 -0.0693,0.0484 -0.0937,0.0723 -0.0489,0.0478 -0.0737,0.0879 -0.0918,0.1211 -0.0723,0.13274 -0.0612,0.16969 -0.0664,0.21093 -0.0208,0.16497 -0.008,0.27009 -0.002,0.38868 0.006,0.10798 0.0124,0.18341 0.0137,0.19921 0,0 0.0174,0.24784 -0.13867,0.74219 -0.15602,0.49435 -0.48568,1.18998 -1.20508,1.96094 -1.43694,1.53993 -4.45797,3.39106 -10.78515,4.32617 -0.0552,-6.4e-4 -2.65672,-0.0316 -5.3711,0.125 -1.3715,0.0791 -2.75562,0.20403 -3.85156,0.41211 -0.54797,0.10404 -1.02359,0.22468 -1.41016,0.39063 -0.38656,0.16594 -0.75622,0.37314 -0.87109,0.83203 l -0.082,0.32812 0.27344,0.19727 c 0,0 3.41278,2.47581 7.05859,5.58984 1.8229,1.55702 3.70384,3.27278 5.23437,4.9082 1.53054,1.63543 2.70648,3.21056 3.12891,4.36524 l 0.0156,0.0449 1.1875,1.97656 0.0371,0.0391 c 0,0 1.03299,1.1091 1.50781,2.51953 0.23741,0.70521 0.33216,1.46541 0.125,2.20312 -0.20585,0.73303 -0.70745,1.47426 -1.77735,2.17383 -0.0776,0.0266 -0.45925,0.15383 -1.01757,0.42578 -0.61194,0.29806 -1.34855,0.71709 -1.8711,1.31445 l 0.0332,-0.0332 c 0,0 -7.16497,6.76804 -13.58985,9.97852 l -0.0508,0.0254 -0.041,0.0332 c 0,0 -1.01805,0.82641 -2.07031,1.79883 -0.52613,0.48621 -1.06069,1.00923 -1.49219,1.49609 -0.43149,0.48687 -0.77571,0.87967 -0.88867,1.38867 -0.14737,0.6639 -0.17119,1.62311 -0.0723,2.56641 0.099,0.94402 0.26121,1.84954 0.83398,2.42383 0.29892,0.29813 0.95118,1.19015 1.50977,2.04297 0.55858,0.85281 1.07787,1.76331 1.14843,1.93945 0.22636,0.56498 0.73289,0.83799 1.20704,1.06641 0.23707,0.11421 0.47481,0.20457 0.6875,0.26953 0.21268,0.065 0.37841,0.11133 0.58398,0.11133 -0.16138,0 -0.07,-0.0121 0.002,0.0254 0.072,0.0375 0.17538,0.10229 0.28321,0.18359 0.21564,0.1626 0.44784,0.39973 0.57031,0.61133 0.12246,0.2116 0.14088,0.33607 0.0723,0.47852 -0.0686,0.14244 -0.31162,0.39326 -0.96679,0.62109 -2.68325,0.93427 -5.52509,-0.12219 -7.43164,-1.79102 l -0.0176,-0.0137 -0.0195,-0.0137 c 0,0 -1.6063,-1.16553 -3.35547,-2.39453 -0.87459,-0.6145 -1.78428,-1.24496 -2.55078,-1.75586 -0.7665,-0.51091 -1.34608,-0.88798 -1.73047,-1.0586 -0.47107,-0.20954 -1.6938,-0.99495 -2.08789,-1.91015 -0.19705,-0.4576 -0.23574,-0.92625 0.0527,-1.51953 0.28847,-0.59328 0.94972,-1.31658 2.22071,-2.10352 l 0.0176,-0.0117 0.0176,-0.0137 c 0,0 2.33165,-1.73284 4.82422,-3.7207 1.24628,-0.99393 2.53307,-2.05063 3.59375,-2.99219 1.06068,-0.94156 1.88048,-1.72453 2.27344,-2.35352 l 0.004,-0.008 0.004,-0.006 c 0,0 1.40723,-2.40841 3.12305,-4.87304 0.85791,-1.23232 1.79397,-2.47786 2.65429,-3.42969 0.86033,-0.95184 1.70457,-1.57642 2.06641,-1.64844 l 1.14453,-0.22851 -0.95508,-0.66993 c 0,0 -0.85999,-0.60689 -1.88281,-1.23046 -0.51141,-0.31179 -1.06441,-0.62799 -1.58203,-0.88086 -0.51762,-0.25288 -0.97768,-0.45086 -1.42578,-0.4961 l 0.13867,0.0352 c 0,0 -3.29158,-1.34829 -6.5918,-2.94336 -1.6501,-0.79754 -3.30228,-1.65784 -4.52929,-2.42969 -0.61351,-0.38592 -1.12106,-0.75206 -1.45703,-1.05859 -0.33598,-0.30653 -0.45004,-0.57148 -0.44922,-0.5586 l -0.0859,-1.38476 -0.81641,1.12109 c 0,0 -1.73865,2.3923 -4.47851,5.14844 -2.73986,2.75614 -6.479821,5.8552 -10.380862,7.25781 l -0.01563,0.006 -0.01758,0.008 c 0,0 -1.140561,0.50698 -2.365234,1.12696 -0.612337,0.30999 -1.247338,0.64867 -1.779297,0.97265 -0.53196,0.32399 -0.946945,0.58102 -1.216797,0.95899 -0.01919,0.0269 -0.468836,0.39144 -1.0625,0.7207 -0.593664,0.32926 -1.355239,0.69889 -2.132813,1.04883 -1.555146,0.69988 -3.255713,1.33654 -3.675781,1.42969 -0.728863,0.16161 -1.514109,0.66324 -2.248047,1.20117 -0.733938,0.53793 -1.361111,1.08731 -1.683594,1.49219 -0.01885,0.0234 -0.200516,0.21788 -0.453124,0.46875 -0.253155,0.2514 -0.594541,0.58186 -1,0.96484 -0.81092,0.76595 -1.879539,1.74484 -3.029297,2.74609 -2.299518,2.00251 -4.979341,4.10748 -6.398438,4.73243 l -0.0957,0.041 -0.07031,0.0781 c 0,0 -1.073257,1.16724 -2.210938,2.47851 -0.56884,0.65564 -1.155232,1.34769 -1.634766,1.95313 -0.479534,0.60543 -0.842567,1.08087 -1.023437,1.48828 -0.208096,0.46873 -1.167615,2.14802 -2.246094,3.85156 -1.078478,1.70354 -2.317137,3.50052 -3.074219,4.31641 -0.410581,0.4417 -0.63725,0.69209 -0.759765,0.83398 -0.03063,0.0355 -0.05457,0.0646 -0.07617,0.0918 -0.0216,0.0272 -0.03302,0.0221 -0.08398,0.125 -0.0064,0.0129 -0.01305,0.0278 -0.02148,0.0508 -0.0084,0.0229 -0.02533,0.10308 -0.02539,0.10351 -3.2e-5,2.2e-4 -0.0059,0.0916 -0.0059,0.0918 7e-6,1.8e-4 0.02535,0.13854 0.02539,0.13867 4.5e-5,1.4e-4 0.09562,0.16788 0.0957,0.16797 5.1e-5,6e-5 0.05348,0.0415 0.101562,0.0781 -0.113593,0.3894 -0.170364,0.51149 -0.298828,1.11914 -0.242794,1.14843 -0.483118,2.4443 -0.04492,3.40625 0.109391,0.24087 0.107017,0.46344 0.05469,0.60937 -0.05233,0.14593 -0.12496,0.21814 -0.275391,0.25196 -0.15043,0.0338 -0.426659,0.0134 -0.830078,-0.23633 -0.403419,-0.24968 -0.915662,-0.72312 -1.486328,-1.50391 -0.471568,-0.6454 -0.762661,-2.03471 -0.814453,-3.71484 -0.05179,-1.68014 0.09805,-3.64991 0.324219,-5.52149 0.452339,-3.74315 1.203125,-7.08789 1.203125,-7.08789 l 0.02539,-0.11719 -0.0293,-0.11718 c 0,0 -0.199501,-0.86891 0.05273,-1.59961 0.126117,-0.36535 0.336921,-0.6822 0.763672,-0.91406 0.42675,-0.23187 1.104419,-0.3801 2.167968,-0.26172 2.360416,0.26163 3.722475,-0.31779 4.519532,-1.07813 0.398528,-0.38017 0.653594,-0.78771 0.845703,-1.10351 0.192108,-0.31581 0.351158,-0.52192 0.376953,-0.53907 0.220106,-0.14712 0.246978,-0.24769 0.347656,-0.40234 0.100678,-0.15465 0.215781,-0.34954 0.351563,-0.58594 0.271564,-0.47279 0.624084,-1.11105 1.064453,-1.87109 0.880738,-1.52009 2.108225,-3.52247 3.685547,-5.58985 3.154643,-4.13474 7.702055,-8.50342 13.630859,-9.84765 l 0.103516,-0.0234 0.08594,-0.0644 c 0,0 0.638797,-0.48109 1.330078,-1.07617 0.345641,-0.29755 0.705118,-0.62418 1.011719,-0.94336 0.306601,-0.31918 0.562694,-0.60762 0.710938,-0.95313 l 0,-0.002 c 0.209628,-0.49118 1.053302,-2.66219 2.773437,-5.02735 1.720135,-2.36515 4.281995,-4.85358 7.847656,-5.88085 l 0.324219,-0.0937 0.03516,-0.33399 c 0,0 0.309057,-2.94511 1.763672,-6.06836 1.454615,-3.12324 3.994212,-6.35349 8.509762,-7.07617 l 0.002,0 c 4.79622,-0.76862 7.87639,-2.45167 10.12109,-4.08789 2.2447,-1.63622 3.67819,-3.18445 5.08008,-3.74609 l 0.0684,-0.0274 0.0566,-0.0449 c 0,0 2.6988,-2.13312 5.69141,-4.29492 1.4963,-1.0809 3.06553,-2.16968 4.39843,-2.9961 0.66645,-0.41321 1.27402,-0.76123 1.77539,-1.00781 0.50138,-0.24657 0.91428,-0.38229 1.08594,-0.40039 l 0.70313,-0.0742 -0.30469,-0.64062 c 0,0 -1.06013,-2.21524 -1.92969,-4.6543 -0.43478,-1.21953 -0.81978,-2.49553 -1,-3.54883 -0.18022,-1.05329 -0.0834,-1.8587 0.10156,-2.08984 l 0.39258,-0.49024 -0.56641,-0.27343 c 0,0 -2.60108,-1.25189 -5.19531,-2.68946 -1.29711,-0.71878 -2.59259,-1.48494 -3.54492,-2.15039 -0.47617,-0.33272 -0.86639,-0.64283 -1.11719,-0.89062 -0.2508,-0.24779 -0.30078,-0.45875 -0.30078,-0.35938 l 0,-0.80859 -0.42773,0.21289 c -0.1283,-0.10773 -0.28809,-0.2392 -0.5,-0.40234 -0.47056,-0.36227 -1.1248,-0.82869 -1.87891,-1.2461 -0.75411,-0.41741 -1.60674,-0.78936 -2.48828,-0.95117 -0.88154,-0.16181 -1.81351,-0.10474 -2.63281,0.37891 l 0.14453,-0.0586 c 0,0 -0.95024,0.21386 -2.01367,0.32032 -0.53172,0.0532 -1.09056,0.0783 -1.54883,0.041 -0.45736,-0.0372 -0.80084,-0.16199 -0.90234,-0.25 l -0.002,0 c -0.63577,-0.55568 -1.39583,-0.54337 -1.88672,-0.35937 -0.2832,0.10615 -0.32524,0.18288 -0.46484,0.29296 -0.0641,-0.0328 -0.0726,-0.0333 -0.16016,-0.0859 -0.20065,-0.12066 -0.41516,-0.30056 -0.47656,-0.38867 0.006,-0.005 -0.007,0.0103 0.006,0 0.12874,-0.10356 0.62884,-0.32345 1.59766,-0.47461 l 0.52734,-0.082 -0.11523,-0.51954 c 0,0 -0.11696,-0.45295 -0.52149,-0.83789 -0.40453,-0.38494 -1.10115,-0.74373 -2.19922,-0.8125 l 0.0879,0.0117 c 0,0 -1.52237,-0.37833 -2.57812,-0.87695 -0.51206,-0.24184 -0.83917,-0.56322 -0.86524,-0.59766 0.0567,-0.061 0.25029,-0.19488 0.5918,-0.33008 l 4.37305,-0.83984 -0.97852,-0.67773 c 0,0 -0.069,-0.0641 -0.0937,-0.084 1.69574,0.12471 3.51758,0.36328 3.51758,0.36328 l 1.58789,0.21094 -1.18555,-1.07617 c 0,0 -0.44322,-0.41884 -0.82812,-0.82031 z m 72.61914,55.64843 c -1.22204,0 -2.28231,0.29331 -3.12695,0.90039 -0.78497,0.56421 -1.44451,1.20769 -1.96875,1.93164 l -0.002,0.002 -15.57422,21.9668 9.79883,0 10.72266,-15.16016 3.79883,5.59961 0.002,0.004 c 0.39163,0.55289 0.79635,1.15284 1.21289,1.80079 l 0.006,0.01 0.006,0.008 c 0.211,0.29984 0.36692,0.49998 0.55273,0.75391 -0.32977,-0.0112 -0.60735,-0.0352 -0.98437,-0.0352 l -2.16992,0 -6.13282,0 -5.10351,7.01954 29.16601,0 -15.17187,-21.95899 c -0.54774,-0.7967 -1.22778,-1.46009 -2.02539,-1.98437 -0.69311,-0.48867 -1.55472,-0.72026 -2.50586,-0.79297 l 0,-0.0645 -0.5,0 z m 16.55078,0.38672 -0.15039,0.19531 -5.31055,6.89454 11.50586,0 0,17.32422 8.2461,0 0,-17.32422 8.11132,0 5.45899,-7.08985 -27.86133,0 z m 28.56836,0 0,0.5 0,23.91407 21.42969,0 5.46875,-7.01954 -18.65235,0 0,-17.39453 -8.24609,0 z m 27.82227,0 0,0.5 0,23.91407 23.2871,0 5.42774,-7.01954 -20.43359,0 0,-2.18554 14.1289,0 4.94531,-6.32032 -19.07421,0 0,-1.79882 14.90039,0 5.45898,-7.08985 -28.64062,0 z m 32.4082,0 -0.15039,0.19531 -5.31055,6.89454 11.50586,0 0,17.32422 8.24609,0 0,-17.32422 8.11133,0 5.45899,-7.08985 -27.86133,0 z m 28.56836,0 0,0.5 0,23.91407 23.28711,0 5.42773,-7.01954 -20.43359,0 0,-2.18554 14.1289,0 4.94532,-6.32032 -19.07422,0 0,-1.79882 14.90039,0 5.45898,-7.08985 -28.64062,0 z m 29.66797,0 0,0.5 0,23.91407 23.28711,0 5.42773,-7.01954 -20.43359,0 0,-2.18554 14.1289,0 4.94532,-6.32032 -19.07422,0 0,-1.79882 14.90039,0 5.45898,-7.08985 -28.64062,0 z m 43.53906,0 c -2.0739,0 -4.00329,0.28669 -5.7832,0.86328 -1.77887,0.55289 -3.33309,1.36195 -4.64649,2.43164 -1.2896,1.04628 -2.3164,2.31926 -3.07031,3.80274 l -0.002,0.002 0,0.002 c -0.73618,1.47235 -1.10352,3.10496 -1.10352,4.87695 0,1.77197 0.36745,3.43707 1.09961,4.97461 l 0.002,0.004 0.002,0.004 c 0.75209,1.50418 1.77418,2.82078 3.05859,3.93555 l 0.004,0.004 0.004,0.004 c 1.31002,1.09169 2.85901,1.94834 4.63477,2.57227 1.78445,0.62697 3.72095,0.93749 5.80078,0.9375 l 12.00586,0 5.42773,-7.01954 -17.43359,0 c -0.93435,0 -1.79165,-0.1236 -2.57813,-0.36328 -0.78702,-0.26313 -1.46594,-0.62089 -2.04492,-1.07031 -0.55078,-0.4456 -0.97973,-0.9687 -1.29687,-1.57813 -0.29136,-0.6278 -0.43946,-1.31562 -0.43946,-2.08789 0,-0.77117 0.1568,-1.46006 0.47071,-2.08789 0.31911,-0.63822 0.74996,-1.17267 1.30273,-1.61914 l 0.004,-0.004 0.004,-0.004 c 0.55391,-0.46868 1.21839,-0.83321 2.00586,-1.0957 0.78458,-0.26153 1.63986,-0.39453 2.57227,-0.39453 l 12.00781,0 5.41797,-7.08985 -17.42578,0 z m -207.125,0.61328 c 1.0182,0 1.81275,0.23493 2.43945,0.67969 l 0.008,0.004 0.008,0.006 c 0.69371,0.45524 1.27409,1.02368 1.75195,1.71875 l 14.08789,20.39258 -25.29297,0 3.64649,-5.01954 5.625,0 2.16992,0 c 0.75978,0 1.4139,0.0232 1.95508,0.0684 l 1.13476,0.0957 -0.69922,-0.90039 c -0.31618,-0.40654 -0.69683,-0.92279 -1.13086,-1.53907 l -0.0117,-0.0176 c -0.41735,-0.64869 -0.82255,-1.25484 -1.21875,-1.81446 l -0.006,-0.008 -4.59961,-6.7832 -11.25586,15.91797 -7.34961,0 14.45117,-20.38282 0.004,-0.004 c 0.45527,-0.62767 1.03153,-1.19319 1.73828,-1.70118 0.64869,-0.46623 1.4803,-0.71289 2.54492,-0.71289 z m 17.04297,0.38672 25.33789,0 -3.91992,5.08985 -8.61914,0 0,17.32422 -6.2461,0 0,-17.32422 -10.47461,0 3.92188,-5.08985 z m 29.07617,0 6.24609,0 0,17.39453 17.60547,0 -3.91015,5.01954 -19.94141,0 0,-22.41407 z m 27.82227,0 25.60937,0 -3.91992,5.08985 -15.4082,0 0,3.79882 18.02148,0 -3.38086,4.32032 -14.64062,0 0,4.18554 19.39453,0 -3.88086,5.01954 -21.79492,0 0,-22.41407 z m 31.90039,0 25.33789,0 -3.91992,5.08985 -8.61915,0 0,17.32422 -6.24609,0 0,-17.32422 -10.47461,0 3.92188,-5.08985 z m 29.07617,0 25.60937,0 -3.91992,5.08985 -15.4082,0 0,3.79882 18.02148,0 -3.38086,4.32032 -14.64062,0 0,4.18554 19.39453,0 -3.88086,5.01954 -21.79492,0 0,-22.41407 z m 29.66797,0 25.60937,0 -3.91992,5.08985 -15.4082,0 0,3.79882 18.02148,0 -3.38086,4.32032 -14.64062,0 0,4.18554 19.39453,0 -3.88086,5.01954 -21.79492,0 0,-22.41407 z m 42.53906,0 15.4043,0 -3.89258,5.08985 -11.51172,0 c -1.02759,0 -1.99325,0.14684 -2.88867,0.44531 -0.89164,0.29721 -1.67301,0.72409 -2.33203,1.28125 -6.6e-4,5.5e-4 -0.001,0.001 -0.002,0.002 -0.65651,0.53226 -1.18133,1.18493 -1.56054,1.94336 -0.38609,0.77218 -0.57618,1.62438 -0.57618,2.5332 0,0.90414 0.1759,1.74971 0.53516,2.51954 l 0.004,0.01 0.006,0.01 c 0.38163,0.73781 0.90695,1.37713 1.56445,1.9082 l 0.004,0.004 0.004,0.002 c 0.67827,0.52754 1.46567,0.94038 2.35352,1.23633 l 0.006,0.002 0.006,0.002 c 0.89209,0.27258 1.85338,0.40625 2.87695,0.40625 l 15.39453,0 -3.88086,5.01954 -11.51367,0 c -1.98017,0 -3.79986,-0.29645 -5.46875,-0.88282 -1.67608,-0.5889 -3.11297,-1.38748 -4.32227,-2.39453 -0.001,-8.9e-4 -0.003,-0.001 -0.004,-0.002 -1.18419,-1.02965 -2.11775,-2.23239 -2.81055,-3.61719 -4.1e-4,-8.3e-4 -0.002,-0.001 -0.002,-0.002 -0.66535,-1.40024 -0.99805,-2.90549 -0.99805,-4.53711 0,-1.63311 0.33356,-3.10111 0.99609,-4.42774 l 0.002,-0.002 c 2.7e-4,-5.5e-4 -2.8e-4,-0.001 0,-0.002 0.69256,-1.36149 1.62403,-2.51514 2.80664,-3.47461 l 0.002,0 0,-0.002 c 1.20617,-0.9828 2.63899,-1.73376 4.3125,-2.2539 l 0.002,0 0.004,0 c 1.67196,-0.54226 3.49642,-0.81641 5.48047,-0.81641 z"
       id="path4189"
       inkscape:connector-curvature="0" />
  </g>
</svg>
